<svg width="23" height="23" viewBox="0 0 23 23" fill="none" xmlns="http://www.w3.org/2000/svg">
<path fill-rule="evenodd" clip-rule="evenodd" d="M12.1783 15.0533C11.9986 15.233 11.7549 15.3339 11.5008 15.3339C11.2467 15.3339 11.0029 15.233 10.8232 15.0533L5.40194 9.63203C5.31041 9.54362 5.2374 9.43788 5.18718 9.32096C5.13695 9.20404 5.11052 9.07828 5.10941 8.95104C5.10831 8.82379 5.13255 8.6976 5.18074 8.57982C5.22892 8.46204 5.30008 8.35504 5.39006 8.26506C5.48005 8.17508 5.58704 8.10392 5.70482 8.05574C5.8226 8.00755 5.94879 7.98331 6.07604 7.98441C6.20328 7.98552 6.32903 8.01195 6.44596 8.06218C6.56288 8.1124 6.66862 8.18541 6.75703 8.27694L11.5008 13.0207L16.2445 8.27694C16.4253 8.10237 16.6673 8.00578 16.9186 8.00796C17.1699 8.01015 17.4103 8.11093 17.5879 8.28862C17.7656 8.4663 17.8664 8.70666 17.8686 8.95793C17.8708 9.20921 17.7742 9.45128 17.5996 9.63203L12.1783 15.0533Z" fill="#2D2D2D"/>
</svg>
