<svg width="22" height="22" viewBox="0 0 22 22" fill="none" xmlns="http://www.w3.org/2000/svg">
<path d="M18.714 10.3571H13.5711C13.4007 10.3571 13.2371 10.4248 13.1166 10.5454C12.996 10.666 12.9283 10.8295 12.9283 11V18.7143C12.9283 18.8847 12.996 19.0483 13.1166 19.1688C13.2371 19.2894 13.4007 19.3571 13.5711 19.3571H18.714C18.8845 19.3571 19.048 19.2894 19.1686 19.1688C19.2891 19.0483 19.3569 18.8847 19.3569 18.7143V11C19.3569 10.8295 19.2891 10.666 19.1686 10.5454C19.048 10.4248 18.8845 10.3571 18.714 10.3571ZM18.714 2.64282H13.5711C13.4007 2.64282 13.2371 2.71055 13.1166 2.83111C12.996 2.95167 12.9283 3.11518 12.9283 3.28568V5.86997C12.9283 6.04046 12.996 6.20397 13.1166 6.32453C13.2371 6.44509 13.4007 6.51282 13.5711 6.51282H18.714C18.8845 6.51282 19.048 6.44509 19.1686 6.32453C19.2891 6.20397 19.3569 6.04046 19.3569 5.86997V3.28568C19.3569 3.11518 19.2891 2.95167 19.1686 2.83111C19.048 2.71055 18.8845 2.64282 18.714 2.64282ZM8.42829 2.64282H3.28544C3.11494 2.64282 2.95143 2.71055 2.83087 2.83111C2.71031 2.95167 2.64258 3.11518 2.64258 3.28568V11C2.64258 11.1705 2.71031 11.334 2.83087 11.4545C2.95143 11.5751 3.11494 11.6428 3.28544 11.6428H8.42829C8.59879 11.6428 8.7623 11.5751 8.88286 11.4545C9.00342 11.334 9.07115 11.1705 9.07115 11V3.28568C9.07115 3.11518 9.00342 2.95167 8.88286 2.83111C8.7623 2.71055 8.59879 2.64282 8.42829 2.64282ZM8.42829 15.4871H3.28544C3.11494 15.4871 2.95143 15.5548 2.83087 15.6754C2.71031 15.796 2.64258 15.9595 2.64258 16.13V18.7143C2.64258 18.8847 2.71031 19.0483 2.83087 19.1688C2.95143 19.2894 3.11494 19.3571 3.28544 19.3571H8.42829C8.59879 19.3571 8.7623 19.2894 8.88286 19.1688C9.00342 19.0483 9.07115 18.8847 9.07115 18.7143V16.13C9.07115 15.9595 9.00342 15.796 8.88286 15.6754C8.7623 15.5548 8.59879 15.4871 8.42829 15.4871Z" stroke="#2D2D2D" stroke-width="1.2" stroke-linecap="round" stroke-linejoin="round"/>
</svg>
