<svg width="22" height="22" viewBox="0 0 22 22" fill="none" xmlns="http://www.w3.org/2000/svg">
<path d="M11.0003 2.75C9.35923 2.75 7.78541 3.4019 6.62503 4.56228C5.46465 5.72266 4.81275 7.29647 4.81275 8.9375V12.2396L3.48657 15.5574C3.44488 15.6618 3.42941 15.7747 3.44149 15.8864C3.45356 15.9981 3.49283 16.1052 3.55586 16.1982C3.61888 16.2912 3.70373 16.3673 3.803 16.4199C3.90226 16.4725 4.0129 16.5 4.12525 16.5H8.25025C8.25025 18.0242 9.47606 19.25 11.0003 19.25C12.5244 19.25 13.7503 18.0242 13.7503 16.5H17.8753C17.9876 16.5 18.0982 16.4725 18.1975 16.4199C18.2968 16.3673 18.3816 16.2912 18.4446 16.1982C18.5077 16.1052 18.5469 15.9981 18.559 15.8864C18.5711 15.7747 18.5556 15.6618 18.5139 15.5574L17.1878 12.2396V8.9375C17.1878 7.29647 16.5359 5.72266 15.3755 4.56228C14.2151 3.4019 12.6413 2.75 11.0003 2.75ZM12.3753 16.5C12.3753 17.2645 11.7648 17.875 11.0003 17.875C10.2358 17.875 9.62525 17.2645 9.62525 16.5H12.3753ZM6.18775 8.9375C6.18775 7.66115 6.69478 6.43707 7.5973 5.53455C8.49982 4.63203 9.7239 4.125 11.0003 4.125C12.2766 4.125 13.5007 4.63203 14.4032 5.53455C15.3057 6.43707 15.8128 7.66115 15.8128 8.9375V12.3716C15.8127 12.4589 15.8292 12.5455 15.8616 12.6266L16.8598 15.125H5.14069L6.13894 12.6266C6.17118 12.5457 6.18775 12.4594 6.18775 12.3723V8.9375Z" fill="#2D2D2D"/>
</svg>
