<svg width="13" height="13" viewBox="0 0 13 13" fill="none" xmlns="http://www.w3.org/2000/svg">
<path d="M11.9167 7.41634H7.33333V11.9997C7.33333 12.2428 7.23676 12.4759 7.06485 12.6479C6.89294 12.8198 6.65978 12.9163 6.41667 12.9163C6.17355 12.9163 5.94039 12.8198 5.76849 12.6479C5.59658 12.4759 5.5 12.2428 5.5 11.9997V7.41634H0.916667C0.673551 7.41634 0.440394 7.31976 0.268486 7.14786C0.0965773 6.97595 0 6.74279 0 6.49967C0 6.25656 0.0965773 6.0234 0.268486 5.85149C0.440394 5.67958 0.673551 5.58301 0.916667 5.58301H5.5V0.999674C5.5 0.756559 5.59658 0.523401 5.76849 0.351493C5.94039 0.179585 6.17355 0.0830078 6.41667 0.0830078C6.65978 0.0830078 6.89294 0.179585 7.06485 0.351493C7.23676 0.523401 7.33333 0.756559 7.33333 0.999674V5.58301H11.9167C12.1598 5.58301 12.3929 5.67958 12.5648 5.85149C12.7368 6.0234 12.8333 6.25656 12.8333 6.49967C12.8333 6.74279 12.7368 6.97595 12.5648 7.14786C12.3929 7.31976 12.1598 7.41634 11.9167 7.41634Z" fill="white"/>
</svg>

