<svg width="22" height="22" viewBox="0 0 22 22" fill="none" xmlns="http://www.w3.org/2000/svg">
<path d="M3 17C3 15.9391 3.42143 14.9217 4.17157 14.1716C4.92172 13.4214 5.93913 13 7 13H15C16.0609 13 17.0783 13.4214 17.8284 14.1716C18.5786 14.9217 19 15.9391 19 17C19 17.5304 18.7893 18.0391 18.4142 18.4142C18.0391 18.7893 17.5304 19 17 19H5C4.46957 19 3.96086 18.7893 3.58579 18.4142C3.21071 18.0391 3 17.5304 3 17Z" stroke="#2D2D2D" stroke-width="1.5" stroke-linejoin="round"/>
<path d="M11 9C12.6569 9 14 7.65685 14 6C14 4.34315 12.6569 3 11 3C9.34315 3 8 4.34315 8 6C8 7.65685 9.34315 9 11 9Z" stroke="#2D2D2D" stroke-width="1.5"/>
</svg>
