<svg width="22" height="22" viewBox="0 0 22 22" fill="none" xmlns="http://www.w3.org/2000/svg">
<path d="M5.53125 4H16.4688C17.314 4 18 4.686 18 5.53125V16.4688C18 16.8749 17.8387 17.2643 17.5515 17.5515C17.2643 17.8387 16.8749 18 16.4688 18H5.53125C5.12514 18 4.73566 17.8387 4.44849 17.5515C4.16133 17.2643 4 16.8749 4 16.4688V5.53125C4 4.686 4.686 4 5.53125 4ZM5.3125 5.53125V16.4688C5.3125 16.5895 5.4105 16.6875 5.53125 16.6875H16.4688C16.5268 16.6875 16.5824 16.6645 16.6234 16.6234C16.6645 16.5824 16.6875 16.5268 16.6875 16.4688V5.53125C16.6875 5.47323 16.6645 5.41759 16.6234 5.37657C16.5824 5.33555 16.5268 5.3125 16.4688 5.3125H5.53125C5.47323 5.3125 5.41759 5.33555 5.37657 5.37657C5.33555 5.41759 5.3125 5.47323 5.3125 5.53125ZM14.2812 6.625C14.4553 6.625 14.6222 6.69414 14.7453 6.81721C14.8684 6.94028 14.9375 7.1072 14.9375 7.28125V13.8438C14.9375 14.0178 14.8684 14.1847 14.7453 14.3078C14.6222 14.4309 14.4553 14.5 14.2812 14.5C14.1072 14.5 13.9403 14.4309 13.8172 14.3078C13.6941 14.1847 13.625 14.0178 13.625 13.8438V7.28125C13.625 7.1072 13.6941 6.94028 13.8172 6.81721C13.9403 6.69414 14.1072 6.625 14.2812 6.625ZM7.0625 7.28125C7.0625 7.1072 7.13164 6.94028 7.25471 6.81721C7.37778 6.69414 7.5447 6.625 7.71875 6.625C7.8928 6.625 8.05972 6.69414 8.18279 6.81721C8.30586 6.94028 8.375 7.1072 8.375 7.28125V12.0938C8.375 12.2678 8.30586 12.4347 8.18279 12.5578C8.05972 12.6809 7.8928 12.75 7.71875 12.75C7.5447 12.75 7.37778 12.6809 7.25471 12.5578C7.13164 12.4347 7.0625 12.2678 7.0625 12.0938V7.28125ZM11 6.625C11.174 6.625 11.341 6.69414 11.464 6.81721C11.5871 6.94028 11.6562 7.1072 11.6562 7.28125V10.3438C11.6562 10.5178 11.5871 10.6847 11.464 10.8078C11.341 10.9309 11.174 11 11 11C10.826 11 10.659 10.9309 10.536 10.8078C10.4129 10.6847 10.3438 10.5178 10.3438 10.3438V7.28125C10.3438 7.1072 10.4129 6.94028 10.536 6.81721C10.659 6.69414 10.826 6.625 11 6.625Z" fill="#2D2D2D"/>
</svg>
